TITLE ""
FILE "LR_black_phrase_E_S04.mp3" MP3
  TRACK 01 AUDIO
    TITLE "LR_black_phrase_E_S04_001"
    INDEX 01 00:00:00
  TRACK 02 AUDIO
    TITLE "LR_black_phrase_E_S04_002"
    INDEX 01 00:00:14
  TRACK 03 AUDIO
    TITLE "LR_black_phrase_E_S04_003"
    INDEX 01 00:01:25
  TRACK 04 AUDIO
    TITLE "LR_black_phrase_E_S04_004"
    INDEX 01 00:01:55
  TRACK 05 AUDIO
    TITLE "LR_black_phrase_E_S04_005"
    INDEX 01 00:04:47
  TRACK 06 AUDIO
    TITLE "LR_black_phrase_E_S04_006"
    INDEX 01 00:05:25
  TRACK 07 AUDIO
    TITLE "LR_black_phrase_E_S04_007"
    INDEX 01 00:08:18
  TRACK 08 AUDIO
    TITLE "LR_black_phrase_E_S04_008"
    INDEX 01 00:09:19
  TRACK 09 AUDIO
    TITLE "LR_black_phrase_E_S04_009"
    INDEX 01 00:10:30
  TRACK 10 AUDIO
    TITLE "LR_black_phrase_E_S04_010"
    INDEX 01 00:10:60
  TRACK 11 AUDIO
    TITLE "LR_black_phrase_E_S04_011"
    INDEX 01 00:12:72
  TRACK 12 AUDIO
    TITLE "LR_black_phrase_E_S04_012"
    INDEX 01 00:13:52
  TRACK 13 AUDIO
    TITLE "LR_black_phrase_E_S04_013"
    INDEX 01 00:15:65
  TRACK 14 AUDIO
    TITLE "LR_black_phrase_E_S04_014"
    INDEX 01 00:16:64
  TRACK 15 AUDIO
    TITLE "LR_black_phrase_E_S04_015"
    INDEX 01 00:17:60
  TRACK 16 AUDIO
    TITLE "LR_black_phrase_E_S04_016"
    INDEX 01 00:18:06
  TRACK 17 AUDIO
    TITLE "LR_black_phrase_E_S04_017"
    INDEX 01 00:20:13
  TRACK 18 AUDIO
    TITLE "LR_black_phrase_E_S04_018"
    INDEX 01 00:20:60
  TRACK 19 AUDIO
    TITLE "LR_black_phrase_E_S04_019"
    INDEX 01 00:22:67
  TRACK 20 AUDIO
    TITLE "LR_black_phrase_E_S04_020"
    INDEX 01 00:23:62
  TRACK 21 AUDIO
    TITLE "LR_black_phrase_E_S04_021"
    INDEX 01 00:25:02
  TRACK 22 AUDIO
    TITLE "LR_black_phrase_E_S04_022"
    INDEX 01 00:25:22
  TRACK 23 AUDIO
    TITLE "LR_black_phrase_E_S04_023"
    INDEX 01 00:27:42
  TRACK 24 AUDIO
    TITLE "LR_black_phrase_E_S04_024"
    INDEX 01 00:28:13
  TRACK 25 AUDIO
    TITLE "LR_black_phrase_E_S04_025"
    INDEX 01 00:30:33
  TRACK 26 AUDIO
    TITLE "LR_black_phrase_E_S04_026"
    INDEX 01 00:31:32
  TRACK 27 AUDIO
    TITLE "LR_black_phrase_E_S04_027"
    INDEX 01 00:32:30
  TRACK 28 AUDIO
    TITLE "LR_black_phrase_E_S04_028"
    INDEX 01 00:32:61
  TRACK 29 AUDIO
    TITLE "LR_black_phrase_E_S04_029"
    INDEX 01 00:34:70
  TRACK 30 AUDIO
    TITLE "LR_black_phrase_E_S04_030"
    INDEX 01 00:35:50
  TRACK 31 AUDIO
    TITLE "LR_black_phrase_E_S04_031"
    INDEX 01 00:37:60
  TRACK 32 AUDIO
    TITLE "LR_black_phrase_E_S04_032"
    INDEX 01 00:38:64
  TRACK 33 AUDIO
    TITLE "LR_black_phrase_E_S04_033"
    INDEX 01 00:40:14
  TRACK 34 AUDIO
    TITLE "LR_black_phrase_E_S04_034"
    INDEX 01 00:40:43
  TRACK 35 AUDIO
    TITLE "LR_black_phrase_E_S04_035"
    INDEX 01 00:42:75
  TRACK 36 AUDIO
    TITLE "LR_black_phrase_E_S04_036"
    INDEX 01 00:43:55
  TRACK 37 AUDIO
    TITLE "LR_black_phrase_E_S04_037"
    INDEX 01 00:46:12
  TRACK 38 AUDIO
    TITLE "LR_black_phrase_E_S04_038"
    INDEX 01 00:47:12
  TRACK 39 AUDIO
    TITLE "LR_black_phrase_E_S04_039"
    INDEX 01 00:48:29
  TRACK 40 AUDIO
    TITLE "LR_black_phrase_E_S04_040"
    INDEX 01 00:48:50
  TRACK 41 AUDIO
    TITLE "LR_black_phrase_E_S04_041"
    INDEX 01 00:50:53
  TRACK 42 AUDIO
    TITLE "LR_black_phrase_E_S04_042"
    INDEX 01 00:51:25
  TRACK 43 AUDIO
    TITLE "LR_black_phrase_E_S04_043"
    INDEX 01 00:53:28
  TRACK 44 AUDIO
    TITLE "LR_black_phrase_E_S04_044"
    INDEX 01 00:54:26
  TRACK 45 AUDIO
    TITLE "LR_black_phrase_E_S04_045"
    INDEX 01 00:55:31
  TRACK 46 AUDIO
    TITLE "LR_black_phrase_E_S04_046"
    INDEX 01 00:55:49
  TRACK 47 AUDIO
    TITLE "LR_black_phrase_E_S04_047"
    INDEX 01 00:57:51
  TRACK 48 AUDIO
    TITLE "LR_black_phrase_E_S04_048"
    INDEX 01 00:58:23
  TRACK 49 AUDIO
    TITLE "LR_black_phrase_E_S04_049"
    INDEX 01 01:00:26
  TRACK 50 AUDIO
    TITLE "LR_black_phrase_E_S04_050"
    INDEX 01 01:01:30
  TRACK 51 AUDIO
    TITLE "LR_black_phrase_E_S04_051"
    INDEX 01 01:02:49
  TRACK 52 AUDIO
    TITLE "LR_black_phrase_E_S04_052"
    INDEX 01 01:03:05
  TRACK 53 AUDIO
    TITLE "LR_black_phrase_E_S04_053"
    INDEX 01 01:05:12
  TRACK 54 AUDIO
    TITLE "LR_black_phrase_E_S04_054"
    INDEX 01 01:05:65
  TRACK 55 AUDIO
    TITLE "LR_black_phrase_E_S04_055"
    INDEX 01 01:07:71
  TRACK 56 AUDIO
    TITLE "LR_black_phrase_E_S04_056"
    INDEX 01 01:08:75
  TRACK 57 AUDIO
    TITLE "LR_black_phrase_E_S04_057"
    INDEX 01 01:10:34
  TRACK 58 AUDIO
    TITLE "LR_black_phrase_E_S04_058"
    INDEX 01 01:10:62
  TRACK 59 AUDIO
    TITLE "LR_black_phrase_E_S04_059"
    INDEX 01 01:12:63
  TRACK 60 AUDIO
    TITLE "LR_black_phrase_E_S04_060"
    INDEX 01 01:13:43
  TRACK 61 AUDIO
    TITLE "LR_black_phrase_E_S04_061"
    INDEX 01 01:15:43
  TRACK 62 AUDIO
    TITLE "LR_black_phrase_E_S04_062"
    INDEX 01 01:16:47
  TRACK 63 AUDIO
    TITLE "LR_black_phrase_E_S04_063"
    INDEX 01 01:17:68
  TRACK 64 AUDIO
    TITLE "LR_black_phrase_E_S04_064"
    INDEX 01 01:18:14
  TRACK 65 AUDIO
    TITLE "LR_black_phrase_E_S04_065"
    INDEX 01 01:20:54
  TRACK 66 AUDIO
    TITLE "LR_black_phrase_E_S04_066"
    INDEX 01 01:21:24
  TRACK 67 AUDIO
    TITLE "LR_black_phrase_E_S04_067"
    INDEX 01 01:23:64
  TRACK 68 AUDIO
    TITLE "LR_black_phrase_E_S04_068"
    INDEX 01 01:24:60
  TRACK 69 AUDIO
    TITLE "LR_black_phrase_E_S04_069"
    INDEX 01 01:26:04
  TRACK 70 AUDIO
    TITLE "LR_black_phrase_E_S04_070"
    INDEX 01 01:26:24
  TRACK 71 AUDIO
    TITLE "LR_black_phrase_E_S04_071"
    INDEX 01 01:29:12
  TRACK 72 AUDIO
    TITLE "LR_black_phrase_E_S04_072"
    INDEX 01 01:29:57
  TRACK 73 AUDIO
    TITLE "LR_black_phrase_E_S04_073"
    INDEX 01 01:32:44
  TRACK 74 AUDIO
    TITLE "LR_black_phrase_E_S04_074"
    INDEX 01 01:33:45
  TRACK 75 AUDIO
    TITLE "LR_black_phrase_E_S04_075"
    INDEX 01 01:34:62
  TRACK 76 AUDIO
    TITLE "LR_black_phrase_E_S04_076"
    INDEX 01 01:35:17
  TRACK 77 AUDIO
    TITLE "LR_black_phrase_E_S04_077"
    INDEX 01 01:38:07
  TRACK 78 AUDIO
    TITLE "LR_black_phrase_E_S04_078"
    INDEX 01 01:38:62
  TRACK 79 AUDIO
    TITLE "LR_black_phrase_E_S04_079"
    INDEX 01 01:41:53
  TRACK 80 AUDIO
    TITLE "LR_black_phrase_E_S04_080"
    INDEX 01 01:42:58
  TRACK 81 AUDIO
    TITLE "LR_black_phrase_E_S04_081"
    INDEX 01 01:43:63
  TRACK 82 AUDIO
    TITLE "LR_black_phrase_E_S04_082"
    INDEX 01 01:44:18
  TRACK 83 AUDIO
    TITLE "LR_black_phrase_E_S04_083"
    INDEX 01 01:46:18
  TRACK 84 AUDIO
    TITLE "LR_black_phrase_E_S04_084"
    INDEX 01 01:46:71
  TRACK 85 AUDIO
    TITLE "LR_black_phrase_E_S04_085"
    INDEX 01 01:48:70
  TRACK 86 AUDIO
    TITLE "LR_black_phrase_E_S04_086"
    INDEX 01 01:49:74
  TRACK 87 AUDIO
    TITLE "LR_black_phrase_E_S04_087"
    INDEX 01 01:51:18
  TRACK 88 AUDIO
    TITLE "LR_black_phrase_E_S04_088"
    INDEX 01 01:51:39
  TRACK 89 AUDIO
    TITLE "LR_black_phrase_E_S04_089"
    INDEX 01 01:54:12
  TRACK 90 AUDIO
    TITLE "LR_black_phrase_E_S04_090"
    INDEX 01 01:54:57
  TRACK 91 AUDIO
    TITLE "LR_black_phrase_E_S04_091"
    INDEX 01 01:57:30
  TRACK 92 AUDIO
    TITLE "LR_black_phrase_E_S04_092"
    INDEX 01 01:58:24
  TRACK 93 AUDIO
    TITLE "LR_black_phrase_E_S04_093"
    INDEX 01 01:59:41
  TRACK 94 AUDIO
    TITLE "LR_black_phrase_E_S04_094"
    INDEX 01 01:59:62
  TRACK 95 AUDIO
    TITLE "LR_black_phrase_E_S04_095"
    INDEX 01 02:01:61
  TRACK 96 AUDIO
    TITLE "LR_black_phrase_E_S04_096"
    INDEX 01 02:02:35
  TRACK 97 AUDIO
    TITLE "LR_black_phrase_E_S04_097"
    INDEX 01 02:04:34
  TRACK 98 AUDIO
    TITLE "LR_black_phrase_E_S04_098"
    INDEX 01 02:05:37
  TRACK 99 AUDIO
    TITLE "LR_black_phrase_E_S04_099"
    INDEX 01 02:06:68
  TRACK 100 AUDIO
    TITLE "LR_black_phrase_E_S04_100"
    INDEX 01 02:07:23
  TRACK 101 AUDIO
    TITLE "LR_black_phrase_E_S04_101"
    INDEX 01 02:09:45
  TRACK 102 AUDIO
    TITLE "LR_black_phrase_E_S04_102"
    INDEX 01 02:10:25
  TRACK 103 AUDIO
    TITLE "LR_black_phrase_E_S04_103"
    INDEX 01 02:12:49
  TRACK 104 AUDIO
    TITLE "LR_black_phrase_E_S04_104"
    INDEX 01 02:13:53
  TRACK 105 AUDIO
    TITLE "LR_black_phrase_E_S04_105"
    INDEX 01 02:14:66
  TRACK 106 AUDIO
    TITLE "LR_black_phrase_E_S04_106"
    INDEX 01 02:15:20
  TRACK 107 AUDIO
    TITLE "LR_black_phrase_E_S04_107"
    INDEX 01 02:16:74
  TRACK 108 AUDIO
    TITLE "LR_black_phrase_E_S04_108"
    INDEX 01 02:17:54
  TRACK 109 AUDIO
    TITLE "LR_black_phrase_E_S04_109"
    INDEX 01 02:19:34
  TRACK 110 AUDIO
    TITLE "LR_black_phrase_E_S04_110"
    INDEX 01 02:20:35
  TRACK 111 AUDIO
    TITLE "LR_black_phrase_E_S04_111"
    INDEX 01 02:21:42
  TRACK 112 AUDIO
    TITLE "LR_black_phrase_E_S04_112"
    INDEX 01 02:21:64
  TRACK 113 AUDIO
    TITLE "LR_black_phrase_E_S04_113"
    INDEX 01 02:24:23
  TRACK 114 AUDIO
    TITLE "LR_black_phrase_E_S04_114"
    INDEX 01 02:24:66
  TRACK 115 AUDIO
    TITLE "LR_black_phrase_E_S04_115"
    INDEX 01 02:27:25
  TRACK 116 AUDIO
    TITLE "LR_black_phrase_E_S04_116"
    INDEX 01 02:28:19
  TRACK 117 AUDIO
    TITLE "LR_black_phrase_E_S04_117"
    INDEX 01 02:29:34
  TRACK 118 AUDIO
    TITLE "LR_black_phrase_E_S04_118"
    INDEX 01 02:29:57
  TRACK 119 AUDIO
    TITLE "LR_black_phrase_E_S04_119"
    INDEX 01 02:31:51
  TRACK 120 AUDIO
    TITLE "LR_black_phrase_E_S04_120"
    INDEX 01 02:32:24
  TRACK 121 AUDIO
    TITLE "LR_black_phrase_E_S04_121"
    INDEX 01 02:34:16
